<svg viewBox="0 0 364 593" fill="none" xmlns="http://www.w3.org/2000/svg"><g filter="url(#filter0_d)"><path d="M16.831 433.544l31.616 31.623c7.775 7.777 20.381 7.777 28.156 0L182 359.746 122.189 300 16.831 405.382c-7.775 7.776-7.775 20.385 0 28.162z" fill="var(--brand-400, #E87E7D)"/></g><g filter="url(#filter1_d)"><path d="M348.126 165.35l-31.76-31.76c-7.81-7.811-20.474-7.811-28.284 0L182.134 239.537l-59.866-59.866L228.037 73.903c7.81-7.81 7.81-20.474 0-28.285l-31.76-31.76c-7.811-7.81-20.474-7.81-28.285 0l-151.85 151.85c-7.81 7.81-7.81 20.474 0 28.284l271.94 271.582c7.81 7.81 20.474 7.81 28.284 0l31.76-31.761c7.811-7.81 7.811-20.474 0-28.284L242.179 299.582l105.947-105.948c7.811-7.81 7.811-20.474 0-28.284z" fill="var(--brand-600, #E35F5E)"/><path d="M181.074 240.597l1.06 1.061 1.061-1.061L289.142 134.65c7.225-7.225 18.939-7.225 26.163 0l31.761 31.761c7.224 7.224 7.224 18.938 0 26.163L241.118 298.521l-1.06 1.061 1.06 1.06L347.066 406.59c7.224 7.224 7.224 18.938 0 26.162l-31.761 31.761c-7.224 7.225-18.938 7.225-26.163 0v-.001L17.203 192.931h0c-7.225-7.225-7.225-18.938 0-26.163l151.85-151.85c7.225-7.224 18.938-7.224 26.163 0l31.76 31.761c7.225 7.225 7.225 18.938 0 26.163L121.208 178.61l-1.061 1.061 1.061 1.061 59.866 59.865z" stroke="var(--brand-500, #E46867)" stroke-width="3"/></g><defs><filter id="filter0_d" x="1" y="292" width="191" height="191" filterUnits="userSpaceOnUse" color-interpolation-filters="sRGB"><feFlood flood-opacity="0" result="BackgroundImageFix"/><feColorMatrix in="SourceAlpha" values="0 0 0 0 0 0 0 0 0 0 0 0 0 0 0 0 0 0 127 0"/><feOffset dy="2"/><feGaussianBlur stdDeviation="5"/><feColorMatrix values="0 0 0 0 0 0 0 0 0 0 0 0 0 0 0 0 0 0 0.25 0"/><feBlend in2="BackgroundImageFix" result="effect1_dropShadow"/><feBlend in="SourceGraphic" in2="effect1_dropShadow" result="shape"/></filter><filter id="filter1_d" x=".284" y="0" width="363.7" height="483.431" filterUnits="userSpaceOnUse" color-interpolation-filters="sRGB"><feFlood flood-opacity="0" result="BackgroundImageFix"/><feColorMatrix in="SourceAlpha" values="0 0 0 0 0 0 0 0 0 0 0 0 0 0 0 0 0 0 127 0"/><feOffset dy="2"/><feGaussianBlur stdDeviation="5"/><feColorMatrix values="0 0 0 0 0 0 0 0 0 0 0 0 0 0 0 0 0 0 0.25 0"/><feBlend in2="BackgroundImageFix" result="effect1_dropShadow"/><feBlend in="SourceGraphic" in2="effect1_dropShadow" result="shape"/></filter></defs></svg>