<svg fill="none" xmlns="http://www.w3.org/2000/svg" viewBox="0 0 364 593"><g filter="url(#filter0_d)"><path d="M16.8313 433.544l31.6162 31.623c7.775 7.777 20.3808 7.777 28.1558 0L182 359.746 122.189 300 16.8313 405.382c-7.77505 7.776-7.77505 20.385 0 28.162z" fill="#2D3748"/></g><g filter="url(#filter1_d)"><path d="M348.126 165.35l-31.76-31.76c-7.81-7.811-20.474-7.811-28.284 0L182.134 239.537l-59.866-59.866L228.037 73.9026c7.81-7.8105 7.81-20.4738 0-28.2843l-31.76-31.7604c-7.811-7.81053-20.474-7.81051-28.285 0L16.1423 165.708c-7.8105 7.81-7.8105 20.474 0 28.284L288.082 465.574c7.81 7.81 20.474 7.81 28.284 0l31.76-31.761c7.811-7.81 7.811-20.474 0-28.284L242.179 299.582l105.947-105.948c7.811-7.81 7.811-20.474 0-28.284z" fill="#1A202C"/><path d="M289.142 464.513v-.001L17.203 192.931h-.0007c-7.22405-7.225-7.22382-18.938.0006-26.163L169.053 14.9185c7.225-7.22467 18.938-7.22468 26.163 0l31.76 31.7605c7.225 7.2247 7.225 18.9382 0 26.1629L121.208 178.61l-1.061 1.061 1.061 1.061 59.866 59.865 1.06 1.061 1.061-1.061L289.142 134.65c7.225-7.225 18.939-7.225 26.163 0l31.761 31.761c7.224 7.224 7.224 18.938 0 26.163L241.118 298.521l-1.06 1.061 1.06 1.06L347.066 406.59c7.224 7.224 7.224 18.938 0 26.162l-31.761 31.761c-7.224 7.225-18.938 7.225-26.163 0z" stroke="#2D3748" stroke-width="3"/></g><defs><filter id="filter0_d" x="1" y="292" width="191" height="191" filterUnits="userSpaceOnUse" color-interpolation-filters="sRGB"><feFlood flood-opacity="0" result="BackgroundImageFix"/><feColorMatrix in="SourceAlpha" values="0 0 0 0 0 0 0 0 0 0 0 0 0 0 0 0 0 0 127 0"/><feOffset dy="2"/><feGaussianBlur stdDeviation="5"/><feColorMatrix values="0 0 0 0 0 0 0 0 0 0 0 0 0 0 0 0 0 0 0.25 0"/><feBlend in2="BackgroundImageFix" result="effect1_dropShadow"/><feBlend in="SourceGraphic" in2="effect1_dropShadow" result="shape"/></filter><filter id="filter1_d" x=".284424" y="0" width="363.7" height="483.431" filterUnits="userSpaceOnUse" color-interpolation-filters="sRGB"><feFlood flood-opacity="0" result="BackgroundImageFix"/><feColorMatrix in="SourceAlpha" values="0 0 0 0 0 0 0 0 0 0 0 0 0 0 0 0 0 0 127 0"/><feOffset dy="2"/><feGaussianBlur stdDeviation="5"/><feColorMatrix values="0 0 0 0 0 0 0 0 0 0 0 0 0 0 0 0 0 0 0.25 0"/><feBlend in2="BackgroundImageFix" result="effect1_dropShadow"/><feBlend in="SourceGraphic" in2="effect1_dropShadow" result="shape"/></filter></defs></svg>